<?xml version="1.0" encoding="UTF-8"?>
<svg id="Layer_2" data-name="Layer 2" xmlns="http://www.w3.org/2000/svg" viewBox="0 0 335.26 383.08">
  <defs>
    <style>
      .cls-1 {
        fill: #2d3f59;
      }
    </style>
  </defs>
  <g id="Layer_1-2" data-name="Layer 1">
    <path class="cls-1" d="M164.62,383.08c-52.53-30.3-105.04-60.63-157.6-90.88C2.2,289.42,0,285.54,0,280,.05,221.01,.05,162.01,0,103.01c0-5.51,2.08-9.45,6.93-12.24C58.09,61.3,109.22,31.78,160.3,2.19c5.09-2.95,9.67-2.89,14.72,.03,50.86,29.45,101.75,58.85,152.69,88.16,5.21,3,7.54,7.06,7.53,13.06-.08,58.62-.09,117.25,0,175.87,0,6.15-2.38,10.24-7.73,13.32-50.84,29.24-101.6,58.61-152.39,87.94-1.49,.86-3.02,1.67-4.53,2.51h-5.99ZM156.4,31.36c-1.43-.32-2.17,.5-2.99,.97C110.69,56.97,67.99,81.65,25.24,106.25c-2.01,1.16-2.65,2.48-2.64,4.74,.06,49.15,.04,98.31,.07,147.46,0,1.02-.51,2.25,.85,3.17,10.95-6.32,21.9-12.76,32.98-18.96,2.59-1.45,3.61-3.01,3.6-6.06-.12-32.69-.01-65.37-.13-98.06-.02-6.26,2.31-10.52,7.83-13.67,27.05-15.43,53.87-31.27,81.06-46.46,5.9-3.3,8.14-6.76,7.74-13.52-.67-11.15-.18-22.38-.18-33.53Zm155.97,230.61c.1-1.6,.21-2.56,.21-3.52,0-49.15-.02-98.3,.09-147.46,0-2.78-1.22-3.9-3.31-5.11-42.32-24.37-84.6-48.8-126.9-73.2-1.04-.6-1.95-1.58-3.63-1.4,0,1.23,0,2.45,0,3.66,0,11.73,.09,23.45-.07,35.18-.04,2.72,.79,4.15,3.17,5.51,28.53,16.34,56.95,32.88,85.49,49.2,5.49,3.14,7.93,7.4,7.85,13.67-.17,14.59-.05,29.19-.05,43.79,0,18.34,0,36.68,0,55.02,0,1.56-.32,3.09,1.57,4.17,11.69,6.64,23.3,13.41,35.57,20.49Zm-278.26,19.64c1.24,.78,2.07,1.32,2.92,1.82,42.37,24.46,84.76,48.89,127.09,73.44,2.62,1.52,4.49,1.49,7.08-.02,32.41-18.83,64.9-37.53,97.36-56.27,10.77-6.22,21.53-12.47,32.7-18.94-12.24-7.05-24.11-13.85-35.92-20.76-1.57-.92-2.57-.21-3.73,.47-4.42,2.55-8.84,5.11-13.26,7.66-24.48,14.13-48.98,28.2-73.41,42.42-5.06,2.95-9.76,3.1-14.71-.07-3.14-2.02-6.46-3.76-9.69-5.63-25.45-14.69-50.91-29.38-76.35-44.08-1.52-.88-2.77-1.7-4.73-.54-11.57,6.84-23.24,13.51-35.35,20.51ZM240.64,135.79c-.29-.24-.53-.5-.83-.67-23.4-13.52-46.82-27.01-70.17-40.62-1.95-1.14-3.19-.45-4.72,.44-20.7,11.97-41.4,23.92-62.11,35.88-2.76,1.59-5.5,3.22-8.3,4.85,.94,1.44,2.32,1.85,3.47,2.52,22.09,12.79,44.23,25.5,66.27,38.37,2.48,1.45,4.26,1.46,6.76,0,22.05-12.87,44.2-25.58,66.3-38.37,1.15-.66,2.55-1.05,3.32-2.4Zm-84.44,147.1c.11-1.01,.2-1.48,.2-1.95,0-26.8-.03-53.59,.07-80.38,0-2.35-1.17-3.22-2.87-4.21-22.54-12.98-45.07-25.98-67.57-39.04-2.32-1.34-3.3-1.64-3.29,1.71,.09,26.17,.09,52.34,0,78.52,0,2.36,.87,3.55,2.81,4.63,6.95,3.88,13.82,7.92,20.71,11.9,16.48,9.51,32.96,19.02,49.94,28.81Zm22.64-.09c.98-.42,1.34-.54,1.65-.72,23.19-13.38,46.36-26.81,69.6-40.1,2.19-1.25,2.38-2.79,2.38-4.88-.04-25.69-.02-51.39-.03-77.08,0-4.44-.03-4.45-3.77-2.29-22.22,12.81-44.41,25.67-66.68,38.4-2.35,1.34-3.24,2.78-3.22,5.52,.11,25.82,.07,51.63,.07,77.45v3.69Z"/>
  </g>
</svg>