<?xml version="1.0" encoding="UTF-8"?>
<svg id="Layer_2" data-name="Layer 2" xmlns="http://www.w3.org/2000/svg" viewBox="0 0 462.88 464.31">
  <defs>
    <style>
      .cls-1 {
        fill: #2d3f59;
        stroke: #2d3f59;
        stroke-miterlimit: 10;
        stroke-width: 10px;
      }
    </style>
  </defs>
  <g id="Layer_1-2" data-name="Layer 1">
    <path class="cls-1" d="M245.96,459.31c-9.33-3.21-16.32-8.88-17.01-19.27-.3-4.45,.74-9.58,2.82-13.52,20.11-38.03,51.36-61.09,94.06-67.48,51.67-7.74,101.82,17.88,127.55,63.42,9.08,16.07,4.25,32.05-13.05,36.85H245.96Zm97.69-14.37v-.09c23.5,0,47,0,70.5,0,6.65,0,13.3-.05,19.95-.12,9.11-.09,11.86-4.77,7.65-12.94-.2-.39-.4-.79-.62-1.17-19.58-34.38-48.96-54.24-88.37-58.1-43.78-4.29-86.92,19.74-107.42,58.89-4.57,8.72-1.64,13.53,8.3,13.53,30,.01,60.01,0,90.01,0Z"/>
    <path class="cls-1" d="M151.54,357.48v-41.06c-1.94,0-3.66,0-5.39,0-39.04,0-78.09,0-117.13,0-15.08,0-23.83-8.65-23.96-23.87-.11-11.98-.04-23.95-.02-35.93,.08-59.73,.18-119.47,.2-179.2,0-5.79,.86-11.18,4.57-15.82,4.78-5.98,11.14-8.5,18.65-8.49,19.82,.01,39.64-.05,59.45,.07,2.88,.02,4.32-.74,5.6-3.51,7.73-16.72,25.93-25.49,43.31-21.14,18.16,4.54,29.98,20.47,29.18,39.31-.74,17.42-14.61,32.59-32.39,35.4-19.98,3.16-39.47-10.82-43-30.83-.25-1.43-.63-2.84-1.03-4.59-7.34,0-14.56,0-21.79,0-13.16,0-26.33-.03-39.49,.02-6.02,.02-8.66,2.62-8.67,8.64-.03,55-.02,110.01,0,165.01,0,.73,.12,1.46,.23,2.82,1.6,0,3.18,0,4.75,0,88.59,0,177.18-.01,265.76,.06,3.06,0,5.13-.78,7.15-3.23,9.05-11,20.67-17.87,34.7-20.56,.72-.14,1.44-.32,2.15-.52,.56-.16,1.1-.37,1.98-.68,0-6.3,0-12.65,0-18.99,0-12.72-.03-25.43,.02-38.15,.02-5.32,2.61-8.35,6.96-8.45,4.55-.1,7.31,3.06,7.32,8.53,.02,17.45,0,34.9,0,52.34,0,1.61,0,3.22,0,4.86,3.59,.87,6.92,1.51,10.15,2.49,26.73,8.13,44.08,33.16,42.34,61-1.74,27.77-22.04,50.79-49.57,55.27-21.37,3.47-39.6-3.19-54.6-18.86-1.36-1.42-3.58-2.86-5.4-2.87-29.13-.17-58.27-.12-87.4-.11-.43,0-.87,.1-1.63,.19v40.84c4.51,0,9.16,0,13.82,0,2.07,0,4.15-.11,6.21,.06,4.58,.38,7.43,3.21,7.48,7.23,.04,4.21-2.96,7.3-7.74,7.39-9.17,.18-18.34,.13-27.51,.13-20.26,0-40.52-.05-60.78-.07-1.04,0-2.07,.01-3.11,0-5.64-.09-9.24-3.01-9.19-7.43,.05-4.43,3.58-7.23,9.35-7.29,6.03-.06,12.07-.01,18.45-.01Zm135.51-98.47H19.62c0,10.9,0,21.52,0,32.14,0,8.37,2.04,10.41,10.44,10.41,84.26,0,168.52,0,252.79,0h4.99c-5.37-14.53-5.45-28.42-.8-42.55Zm56.44,65.54c25.13,0,45.38-20.17,45.4-45.22,.02-24.94-20.41-45.41-45.34-45.42-24.97-.01-45.31,20.35-45.32,45.36,0,25.15,20.12,45.28,45.26,45.28ZM104.54,65.91c.1,12.84,10.79,23.39,23.58,23.28,12.8-.11,23.35-10.72,23.43-23.56,.08-13.1-10.45-23.56-23.7-23.52-13.22,.03-23.41,10.44-23.31,23.8Zm85.01,291.45v-40.71h-23.15v40.71h23.15Z"/>
    <path class="cls-1" d="M168.45,163.79c0,12.16,0,23.69,0,35.21,0,14.25-6.35,20.66-20.44,20.66-24.54,0-49.09,.02-73.63,0-12.46-.01-20.08-8.38-18.17-20.64,2.61-16.75,5.32-33.51,8.73-50.11,3.98-19.37,21.03-32.83,40.79-32.91,24.1-.11,48.2,.05,72.3-.16,2.33-.02,4.99-1.32,6.89-2.8,3.36-2.62,6.26-5.84,9.34-8.82,11.29-10.91,15.17-12.16,30.51-9.62,2.87-7.74,5.78-15.58,8.69-23.41,.87-2.35,1.69-4.72,2.61-7.05,1.91-4.82,5.6-6.85,9.56-5.34,4.11,1.56,5.71,5.42,3.98,10.22-3.99,11.1-8.16,22.13-12.05,33.26-.6,1.73-.62,4.03-.02,5.76,3.42,9.88,1.88,18.73-5.44,26.19-6.73,6.85-13.72,13.46-20.81,19.94-7.16,6.54-15.73,9.72-25.47,9.65-5.59-.04-11.18,0-17.37,0Zm-66.49,41.32c16.54,0,32.49,0,48.44,0,3.12,0,3.39-2.02,3.38-4.5-.06-13.45-.03-26.91-.02-40.36,0-8.79,1.95-10.78,10.54-10.79,6.65,0,13.31-.03,19.96,0,7.44,.04,13.83-2.34,19.17-7.68,5.65-5.64,11.52-11.06,17.24-16.63,5.03-4.89,5.48-9.97,1.39-14.37-3.93-4.24-9.38-4.03-14.42,.69-5.17,4.86-10.36,9.72-15.31,14.8-2.9,2.97-6.08,4.19-10.23,4.15-17.59-.16-35.19-.11-52.79-.05-8.87,.03-17.76-.17-26.59,.5-11.58,.88-21.38,9.44-23.6,20.79-3.22,16.5-5.8,33.12-8.68,49.68-.44,2.53,.79,3.68,3.1,3.73,4.41,.09,8.82,.03,13.37,.03,.4-1.57,.81-2.83,1.03-4.11,1.85-11.05,3.66-22.12,5.51-33.17,.93-5.54,4.33-8.34,9-7.47,4.25,.79,6.24,4.63,5.32,10.01-1.93,11.32-3.79,22.65-5.81,34.76Z"/>
    <path class="cls-1" d="M281.03,5c26.03,0,52.06,0,78.09,0,13.6,0,22.86,8.51,22.98,22.13,.27,30.9,.27,61.81-.01,92.71-.12,13.27-9.05,21.92-22.22,21.99-34.61,.16-69.21,.08-103.82,.04-5.25,0-8.18-2.32-8.5-6.45-.31-3.94,1.59-6.54,5.28-7.68,1.37-.42,2.93-.25,4.4-.25,33.28-.01,66.55,0,99.83-.01,8.42,0,10.57-2.1,10.57-10.34,0-29.28,0-58.55,0-87.83,0-7.7-2.28-9.95-10.11-9.96-51.17,0-102.34,0-153.51,0-8.22,0-10.41,2.25-10.41,10.63,0,17.89,0,35.78,0,53.67,0,5.52-2.64,8.87-6.97,9.01-4.53,.15-7.34-3.23-7.35-9.07-.03-18.63-.09-37.26,.01-55.89,.08-14.05,9.03-22.71,23.23-22.71,26.18,0,52.35,0,78.53,0Z"/>
    <path class="cls-1" d="M295.88,52.84c-9.61,0-19.22,.03-28.83,0-5.63-.02-8.73-2.56-8.83-7.1-.1-4.59,2.91-7.45,8.48-7.48,19.66-.09,39.32-.09,58.99,0,5.47,.03,8.6,3.07,8.43,7.56-.17,4.3-3.33,6.98-8.52,7.01-9.9,.05-19.81,.02-29.72,.02Z"/>
    <path class="cls-1" d="M301.96,80.58c-7.82,0-15.65,.05-23.47-.02-5.5-.05-8.64-2.83-8.51-7.35,.12-4.34,3.23-6.95,8.48-6.96,15.8-.03,31.59-.03,47.39,0,5.12,.01,8.27,2.8,8.28,7.15,.02,4.35-3.07,7.11-8.25,7.16-7.97,.07-15.94,.02-23.92,.02Z"/>
    <path class="cls-1" d="M308.65,108.68c-5.46,0-10.92,.07-16.38-.02-5.2-.09-8.31-2.79-8.45-7.11-.14-4.51,3.02-7.52,8.43-7.57,11.21-.11,22.43-.11,33.64,0,5.13,.06,8.26,3.03,8.26,7.32,0,4.31-3.16,7.24-8.24,7.34-5.75,.11-11.51,.03-17.26,.03Z"/>
    <path class="cls-1" d="M178.42,273.04c2.96,0,5.91-.08,8.86,.02,4.45,.14,7.61,2.92,7.91,6.81,.29,3.84-2.61,7.38-7.02,7.58-6.78,.31-13.59,.31-20.37,0-4.46-.2-7.22-3.6-6.97-7.58,.25-3.94,3.32-6.67,7.84-6.81,3.25-.1,6.5-.02,9.75-.02Z"/>
  </g>
</svg>