<?xml version="1.0" encoding="UTF-8"?>
<svg id="Layer_2" data-name="Layer 2" xmlns="http://www.w3.org/2000/svg" viewBox="0 0 364.27 364.36">
  <defs>
    <style>
      .cls-1 {
        fill: #2d3f59;
        stroke: #2d3f59;
        stroke-miterlimit: 10;
        stroke-width: 5px;
      }
    </style>
  </defs>
  <g id="Layer_1-2" data-name="Layer 1">
    <g>
      <path class="cls-1" d="M271.94,315.52c0,7.18-.27,13.77,.05,20.32,.93,18.68-12.16,29.96-32.32,24.73-18.42-4.77-36.77-9.8-55.13-14.79-1.78-.48-3.34-.41-5.09,.07-18.24,4.95-36.5,9.8-54.75,14.72-4.52,1.22-9.12,1.65-13.71,.93-11.2-1.75-18.45-10.26-18.64-21.83-.13-7.84-.02-15.69-.02-24.26-8.68,5.83-18.05,4.31-27.17,4.4-9.98,.1-19.96,.07-29.94,0-14.78-.09-26.6-11.88-26.74-26.59-.07-6.98-.33-13.97,1.73-20.77,3.54-11.67,10.27-20.99,20.69-27.4,2.27-1.4,2.09-2.21,.78-4.14-7.19-10.58-7.1-23.72,.05-34.01,7.02-10.11,19.37-14.82,31.56-12.04,11.83,2.7,20.97,12.54,22.77,24.94,1.11,7.68-.52,14.92-5.12,21.27-1.36,1.87-1.31,2.7,.76,3.9,5.56,3.22,10.03,7.73,14.12,13.26,2.47-7.2,5.14-13.86,8.89-20.02,.79-1.3-.13-2.09-.79-2.97-4.07-5.46-4.71-11.14-1.99-17.55,3.63-8.56-1.92-22.09-10.52-25.61-6.65-2.72-10.11-7.5-10.75-14.39-.52-5.58-.6-11.18,.29-16.78,.95-5.95,4.12-9.93,9.59-12.37,9.87-4.41,15.1-16.93,11.08-26.84-2.45-6.04-1.62-11.42,2.21-16.5,3.55-4.71,7.64-8.88,12.32-12.47,5.06-3.86,10.47-4.7,16.51-2.4,9.85,3.75,22.35-1.59,26.39-11.37,2.85-6.9,8.33-9.69,15.16-10.33,6.2-.57,12.45-.74,18.64,.45,5.79,1.11,9.92,4.18,12.3,9.74,4.28,10,16.48,15.22,26.67,11.43,5.75-2.14,11-1.45,15.88,2.17,5.05,3.74,9.4,8.19,13.09,13.26,3.58,4.92,4.21,10.14,1.93,15.87-3.99,10.03,1.09,22.66,10.88,26.9,6.33,2.74,9.4,7.57,10,14.14,.52,5.71,.68,11.43-.35,17.14-1.01,5.61-4.06,9.43-9.24,11.79-10.37,4.74-15.29,16.75-11.18,27.4,2.17,5.63,1.51,10.82-2.07,15.5-1.57,2.05-1.48,3.51-.2,5.6,3.38,5.53,5.59,11.62,7.85,18.19,4.35-5.9,9.28-10.54,15.25-14.06,2.24-1.32,0-2.38-.55-3.23-8.22-12.56-6.59-28.33,4.09-38.61,10.83-10.43,28.12-11.12,39.63-1.6,11.89,9.84,14.68,26.71,6.24,39.39-1.81,2.72-1.66,3.64,1.09,5.48,14.16,9.49,21.38,22.92,21.58,39.99,.05,4.47,.43,8.95-.64,13.41-2.92,12.13-13.48,20.74-25.94,20.79-14.22,.07-28.44-.02-42.66,.03-5.1,.02-9.71-1.61-14.56-4.34Zm-65.21,23.02c0,.25-.01,.5-.02,.75,13.11,3.42,26.16,7.09,39.35,10.16,8.18,1.9,13.75-2.19,13.78-10.29,.06-21.19,1.62-42.48-.64-63.57-3.3-30.81-20.34-51.95-48.66-64.16-1.56-.67-2.87-.69-4.5,.21-15.88,8.71-31.84,8.7-47.76,.07-1.41-.76-2.55-1.14-4.13-.47-27.9,11.74-45.01,32.42-48.89,62.42-2.8,21.64-.85,43.61-.83,65.42,0,7.89,5.14,11.63,12.98,10.58,1.48-.2,2.97-.44,4.4-.83,34.7-9.36,69.4-18.74,104.11-28.09,2.21-.6,4.23-1.46,5.93-3,4.27-3.87,5.34-9.91,2.68-15.02-2.86-5.5-8.65-7.7-15.73-5.88-20.6,5.29-41.19,10.61-61.78,15.92-8.91,2.3-17.81,4.65-26.74,6.87-3.85,.95-6.82-.65-7.81-3.9-1.01-3.28,.22-6.23,3.77-7.46,1.97-.69,2.03-1.74,2.03-3.29-.03-6.74-.04-13.47,0-20.21,.03-4.42,2.3-6.88,6.14-6.78,3.67,.09,5.76,2.48,5.8,6.75,.04,5.61,.12,11.23-.04,16.84-.07,2.58,.75,2.88,3.04,2.23,5.26-1.5,10.58-2.82,15.9-4.1,21.27-5.12,42.19-11.66,63.72-15.72,.93-.18,1.13-.62,1.37-1.4,1.09-3.52,3.63-5.12,7.16-4.42,3.67,.72,4.96,3.46,4.66,7-.13,1.52,.43,2.43,1.7,3.37,8.13,6.06,11.67,14.3,9.92,24.21-1.84,10.41-8.45,16.94-18.63,19.75-7.41,2.05-14.84,4.03-22.26,6.03Zm44.66-112.28c.94-1.76,.08-2.98-.43-4.19-2.16-5.1-2.8-10.35-1.37-15.71,2.65-9.93,6.1-19.68,16.25-24.23,4.97-2.23,6.16-5.47,6.12-10.07-.02-2.37-.14-4.73-.24-7.09-.12-3.03-1.43-4.98-4.5-6.01-13.08-4.39-21.84-28.17-17.17-37.77,2.96-6.09,.62-9.84-3.49-13.6-1.84-1.68-3.69-3.35-5.55-5-1.53-1.36-3.11-1.53-5.15-.81-16.45,5.76-34.33-1.89-41.71-17.81-.82-1.78-1.95-2.68-3.88-2.96-4.84-.71-9.64-.77-14.53-.27-3.27,.34-4.98,1.68-6.27,4.72-5.37,12.68-24.66,21.93-37.58,17.32-5.73-2.05-9.18-.6-12.68,3.32-1.66,1.86-3.35,3.69-5.03,5.53-1.78,1.95-2.1,3.98-.95,6.48,2.3,5.01,2.89,10.3,1.47,15.68-2.66,10.07-6.19,19.9-16.48,24.49-4.72,2.11-5.88,5.12-5.88,9.44,0,2.74,.19,5.47,.31,8.21,.12,2.64,1.3,4.35,3.96,5.17,12.97,3.96,23.17,28.65,16.8,40.79-.62,1.19-1.6,2.55-.59,4.13,1.22-.38,1.74-1.45,2.47-2.25,7.78-8.61,16.81-15.6,27.33-20.5,3.02-1.41,2.72-2.33,1-4.64-11.34-15.18-12.7-36.28-3.12-52.08,10.69-17.65,26.65-26.23,47.13-23.95,36.99,4.11,54.93,46.47,32.72,76.43-1.76,2.38-1.16,3.06,1.14,4.13,7.85,3.64,14.94,8.48,21.26,14.4,2.96,2.78,5.73,5.76,8.67,8.73Zm-69.21-20.17c19.66-.04,35.99-16.45,35.89-36.08-.1-19.52-16.28-35.7-35.8-35.79-19.64-.09-36.03,16.22-36.06,35.89-.03,19.64,16.34,36.01,35.98,35.97Zm-125.92,101.81c6.86,0,13.72,.1,20.57-.02,8.97-.16,15.21-6.41,15.47-15.35,.08-2.62,.14-5.25-.04-7.85-1.05-14.63-7.93-25.4-21.29-31.82-1.75-.84-3.36-1.12-5.31-.41-5.28,1.92-10.91,2.53-16.14,.61-4.96-1.83-8.61-.12-12.43,2.36-3.59,2.32-6.67,5.18-9.28,8.59-6.36,8.29-7.7,17.85-7.4,27.92,.28,9.59,6.42,15.88,16.02,15.98,6.61,.07,13.22,.01,19.83,0Zm251.44,0c6.98,0,13.97,.13,20.95-.03,8.59-.2,14.77-6.35,15.15-14.89,.13-2.86,.18-5.75-.04-8.6-1.14-14.64-8.18-25.31-21.55-31.65-1.63-.77-3.16-.92-4.97-.27-5.28,1.93-10.92,2.56-16.13,.61-5.11-1.91-8.86-.06-12.76,2.49-3.47,2.27-6.44,5.07-8.98,8.37-6.37,8.28-7.74,17.83-7.44,27.9,.28,9.61,6.39,15.94,15.96,16.06,6.61,.08,13.22,.02,19.82,0ZM74.31,224.18c.1-9.67-8-17.96-17.71-18.11-9.66-.15-17.98,7.91-18.2,17.62-.22,9.8,8.04,18.24,17.9,18.29,9.68,.05,17.91-8.08,18.01-17.8Zm251.55-.14c0-9.68-8.16-17.89-17.86-17.97-9.81-.08-18.17,8.32-18.05,18.13,.12,9.73,8.35,17.85,18.03,17.77,9.73-.07,17.88-8.25,17.88-17.94Z"/>
      <path class="cls-1" d="M26.59,74.36c13.33,.03,23.82,10.65,23.78,24.07-.03,13.29-10.71,23.84-24.09,23.8-13.28-.04-23.81-10.71-23.78-24.11,.03-13.32,10.65-23.78,24.09-23.75Zm11.82,24.04c.09-6.32-5.37-11.94-11.76-12.09-6.35-.15-11.98,5.23-12.18,11.65-.21,6.47,5.42,12.26,11.94,12.28,6.35,.02,11.91-5.47,12-11.84Z"/>
      <path class="cls-1" d="M313.89,98.39c-.03-13.42,10.46-24.01,23.81-24.03,13.43-.02,24.04,10.47,24.06,23.79,.02,13.38-10.54,24.05-23.82,24.08-13.37,.03-24.02-10.53-24.05-23.84Zm24.06,11.85c6.36-.09,11.86-5.67,11.85-12-.02-6.36-5.55-11.89-11.92-11.92-6.52-.03-12.19,5.7-12.03,12.18,.16,6.38,5.77,11.84,12.1,11.75Z"/>
      <path class="cls-1" d="M158.19,26.29c.02-13.31,10.65-23.82,24.07-23.79,13.33,.03,23.84,10.64,23.81,24.06-.03,13.3-10.69,23.85-24.07,23.82-13.3-.03-23.82-10.68-23.8-24.08Zm23.81-11.83c-6.4,.08-11.88,5.62-11.85,12,.03,6.38,5.53,11.9,11.91,11.94,6.49,.04,12.18-5.72,12.04-12.19-.14-6.38-5.76-11.83-12.1-11.75Z"/>
      <path class="cls-1" d="M64.53,87.07c-3.45-.34-5.29-1.95-6.18-4.71-.89-2.77,.06-5.02,2.41-6.43,2.44-1.46,5.12-2.54,7.71-3.73,23.7-10.95,47.4-21.89,71.1-32.82,1.02-.47,2.04-.95,3.1-1.27,3.27-1,5.7,.31,7.12,3.18,1.45,2.94,.67,5.63-2.05,7.53-1.21,.84-2.63,1.4-3.98,2.02-24.83,11.45-49.66,22.9-74.49,34.33-1.68,.77-3.43,1.39-4.74,1.91Z"/>
      <path class="cls-1" d="M220.41,37.72c.77,.28,1.96,.62,3.08,1.14,26.07,12.02,52.14,24.04,78.19,36.1,4.8,2.23,5.97,6.31,2.95,9.84-2.35,2.75-5.08,2.5-8.1,1.09-13.98-6.5-27.99-12.92-41.98-19.38-12.08-5.57-24.16-11.14-36.21-16.76-4.17-1.94-5.6-5.24-3.82-8.65,1.13-2.16,2.98-3.26,5.89-3.39Z"/>
      <path class="cls-1" d="M53.41,177.64c.02,3.72-2.09,6.21-5.38,6.52-3.31,.31-5.54-1.37-6.41-4.49-2.09-7.53-4.05-15.1-6.04-22.65-1.42-5.4-2.84-10.8-4.23-16.2-1.14-4.46,.43-7.81,4-8.69,3.6-.89,6.44,1.15,7.65,5.67,3.38,12.58,6.71,25.17,10.04,37.76,.22,.83,.3,1.71,.37,2.09Z"/>
      <path class="cls-1" d="M310.89,176.95c.83-3.09,1.89-7.04,2.93-11,2.53-9.6,5.01-19.2,7.58-28.79,1.06-3.96,3.97-5.86,7.41-5.07,3.35,.76,5.32,4.03,4.32,7.9-3.4,13.22-6.9,26.4-10.47,39.58-.92,3.39-3.73,5.13-6.71,4.58-3.31-.61-5.23-2.98-5.08-7.2Z"/>
      <path class="cls-1" d="M215.31,248.03c2.99,0,5.98-.09,8.96,.03,3.34,.14,5.57,2.48,5.69,5.71,.12,3.36-2.16,6.07-5.63,6.14-6.22,.14-12.44,.15-18.66,0-3.3-.08-5.48-2.64-5.5-5.89-.02-3.38,2.28-5.76,5.81-5.99,.12,0,.25,0,.37,0,2.99,0,5.97,0,8.96,0Z"/>
    </g>
  </g>
</svg>