<?xml version="1.0" encoding="UTF-8"?>
<svg id="Layer_2" data-name="Layer 2" xmlns="http://www.w3.org/2000/svg" viewBox="0 0 398.25 398.4">
  <defs>
    <style>
      .cls-1, .cls-2 {
        fill: #2d3f59;
      }

      .cls-2 {
        stroke: #2d3f59;
        stroke-miterlimit: 10;
        stroke-width: 6px;
      }
    </style>
  </defs>
  <g id="Layer_2-2" data-name="Layer 2">
    <g>
      <path class="cls-1" d="M398.22,37.07c-.01-19.19-12.48-34.22-31.03-36.49-8.34-1.02-16.89-.39-25.34-.4-8.13-.01-16.34-.56-24.39,.32-18.76,2.06-31.28,17.17-31.31,37.17-.07,53.76-.02,107.53-.02,161.29s-.05,107.85,.02,161.78c.03,22.82,15.03,37.6,37.87,37.63,11.97,0,23.93,0,35.9,0,23.39-.02,38.3-14.88,38.31-38.23,.01-38.77,0-77.54,0-116.31,0-68.92,.03-137.84-.01-206.76Zm-30.45,323.41c0,5.75-1.65,7.41-7.36,7.43-11.81,.04-23.61,.02-35.42,.01-7.2-.01-8.37-1.14-8.37-8.28-.01-53.43,0-106.87,0-160.31s-.01-106.56,0-159.84c0-7.91,.95-8.87,8.73-8.88,11.64,0,23.29-.02,34.93,.01,5.81,.02,7.49,1.62,7.49,7.31,.02,107.51,.02,215.03,0,322.55Z"/>
      <path class="cls-2" d="M367.78,37.93c.02,107.51,.02,215.03,0,322.55,0,5.75-1.65,7.41-7.36,7.43-11.81,.04-23.61,.02-35.42,.01-7.2-.01-8.37-1.14-8.37-8.28-.01-53.43,0-106.87,0-160.31s-.01-106.56,0-159.84c0-7.91,.95-8.87,8.73-8.88,11.64,0,23.29-.02,34.93,.01,5.81,.02,7.49,1.62,7.49,7.31Z"/>
      <path class="cls-1" d="M255.35,139.61c-.04-22.3-15.14-37.06-37.43-37.21-12.61-.08-25.21-.06-37.82,.02-3.01,.02-6.1,.14-9.02,.81-17.23,3.9-28.08,18.04-28.11,36.68-.07,36.7-.02,73.4-.02,110.1s-.07,74.04,.02,111.06c.06,21.88,15.34,37.2,36.95,37.29,12.45,.06,24.9,.03,37.34,.01,22.77-.03,38.06-14.89,38.1-37.6,.12-73.72,.13-147.44-.01-221.16Zm-30.55,220.74c0,5.74-1.72,7.41-7.38,7.44-11.97,.06-23.94,.11-35.91,.13-6.59,0-8.06-1.49-8.06-8.24-.02-36.39-.01-72.78-.01-109.17s-.01-72.45,0-108.68c0-7.84,1.08-8.95,8.73-8.95,11.81,.01,23.62,.01,35.43,.09,5.5,.04,7.2,1.68,7.2,7.13,.03,73.42,.03,146.83,0,220.25Z"/>
      <path class="cls-2" d="M224.8,140.1c.03,73.42,.03,146.83,0,220.25,0,5.74-1.72,7.41-7.38,7.44-11.97,.06-23.94,.11-35.91,.13-6.59,0-8.06-1.49-8.06-8.24-.02-36.39-.01-72.78-.01-109.17s-.01-72.45,0-108.68c0-7.84,1.08-8.95,8.73-8.95,11.81,.01,23.62,.01,35.43,.09,5.5,.04,7.2,1.68,7.2,7.13Z"/>
      <path class="cls-1" d="M112.05,301.26c0-20.9,.3-41.81-.09-62.71-.33-17.29-13.18-31.67-30.32-33.47-16.5-1.73-33.2-1.59-49.7-.16C12.83,206.58,.08,221.72,.05,241.02-.02,281.23-.02,321.44,.05,361.66c.03,21.16,15.4,36.58,36.47,36.7,12.45,.07,24.9,.02,37.35,.01,23.44-.01,38.2-14.73,38.26-38.22,.05-19.63,.01-39.26,.01-58.89h-.09Zm-30.41,59.19c0,5.95-1.48,7.44-7.27,7.46-12.12,.04-24.25,.04-36.38,0-5.95-.01-7.49-1.62-7.5-7.77-.02-19.47-.01-38.93-.01-58.4s-.01-39.25,.01-58.87c0-6.42,1.5-7.97,7.81-8,11.97-.04,23.94-.05,35.9,0,5.86,.03,7.43,1.58,7.44,7.34,.02,39.41,.02,78.82,0,118.23Z"/>
      <path class="cls-2" d="M81.64,242.22c.02,39.41,.02,78.82,0,118.23,0,5.95-1.48,7.44-7.27,7.46-12.12,.04-24.25,.04-36.38,0-5.95-.01-7.49-1.62-7.5-7.77-.02-19.47-.01-38.93-.01-58.4s-.01-39.25,.01-58.87c0-6.42,1.5-7.97,7.81-8,11.97-.04,23.94-.05,35.9,0,5.86,.03,7.43,1.58,7.44,7.34Z"/>
    </g>
  </g>
</svg>